<mxfile host="app.diagrams.net" modified="2023-11-07T07:45:37.769Z" agent="Mozilla/5.0 (Windows NT 10.0; Win64; x64) AppleWebKit/537.36 (KHTML, like Gecko) Chrome/118.0.0.0 Safari/537.36" version="22.0.8" etag="m9SBHfHaJ08et6DYy6MG" type="github">
  <diagram name="Page-1" id="yFlKGS9E3B2VLortmN45">
    <mxGraphModel>
      <root>
        <mxCell id="0" />
        <mxCell id="1" parent="0" />
      </root>
    </mxGraphModel>
  </diagram>
</mxfile>
